<?xml version="1.0" encoding="utf-8"?>
<!-- Generator: Adobe Illustrator 22.1.0, SVG Export Plug-In . SVG Version: 6.00 Build 0)  -->
<svg version="1.1" id="圖層_1" xmlns="http://www.w3.org/2000/svg" xmlns:xlink="http://www.w3.org/1999/xlink" x="0px" y="0px"
	 viewBox="0 0 64.1 65.5" style="enable-background:new 0 0 64.1 65.5;" xml:space="preserve">
<style type="text/css">
	.st0{fill:none;stroke:#193B8B;stroke-miterlimit:10;}
</style>
<path class="st0" d="M63.6,6.9H0.5V2.5c0-1.1,0.9-2,2-2h59.2c1.1,0,2,0.9,2,2V6.9z"/>
<path class="st0" d="M0.5,58.6h63.1V63c0,1.1-0.9,2-2,2H2.5c-1.1,0-2-0.9-2-2V58.6z"/>
<polyline class="st0" points="1.8,6.9 3.8,32.8 10,32.8 "/>
<polyline class="st0" points="18.2,6.9 16.1,32.8 10,32.8 "/>
<g>
	<polyline class="st0" points="45.9,6.9 48,32.8 54.2,32.8 	"/>
	<polyline class="st0" points="62.4,6.9 60.3,32.8 54.2,32.8 	"/>
</g>
<polyline class="st0" points="24.4,6.9 26.9,32.8 37.2,32.8 39.7,6.9 "/>
<g>
	<g>
		<polyline class="st0" points="62.4,58.7 60.3,32.8 54.2,32.8 		"/>
		<polyline class="st0" points="45.9,58.7 48,32.8 54.2,32.8 		"/>
	</g>
	<g>
		<polyline class="st0" points="18.2,58.7 16.1,32.8 10,32.8 		"/>
		<polyline class="st0" points="1.8,58.7 3.8,32.8 10,32.8 		"/>
	</g>
	<polyline class="st0" points="39.7,58.7 37.2,32.8 26.9,32.8 24.4,58.7 	"/>
</g>
</svg>
