<?xml version="1.0" encoding="utf-8"?>
<!-- Generator: Adobe Illustrator 28.0.0, SVG Export Plug-In . SVG Version: 6.00 Build 0)  -->
<svg version="1.1" id="圖層_1" xmlns="http://www.w3.org/2000/svg" xmlns:xlink="http://www.w3.org/1999/xlink" x="0px" y="0px"
	 viewBox="0 0 69.1 67.47" style="enable-background:new 0 0 69.1 67.47;" xml:space="preserve">
<style type="text/css">
	.st0{fill:none;stroke:#193B8B;stroke-width:3;stroke-miterlimit:10;}
</style>
<rect x="1.5" y="1.5" class="st0" width="66.1" height="6.39"/>
<rect x="1.5" y="59.58" transform="matrix(-1 -1.224647e-16 1.224647e-16 -1 69.1046 125.5508)" class="st0" width="66.1" height="6.39"/>
<path class="st0" d="M4.25,7.9l1.92,24.28c0.07,0.91,0.83,1.61,1.74,1.61h4.54"/>
<path class="st0" d="M20.66,7.9l-1.92,24.28c-0.07,0.91-0.83,1.61-1.74,1.61h-4.54"/>
<g>
	<path class="st0" d="M48.45,7.9l1.92,24.28c0.07,0.91,0.83,1.61,1.74,1.61h4.54"/>
	<path class="st0" d="M64.85,7.9l-1.92,24.28c-0.07,0.91-0.83,1.61-1.74,1.61h-4.54"/>
</g>
<path class="st0" d="M26.95,7.9l2.31,24.31c0.09,0.9,0.84,1.58,1.74,1.58h7.11c0.9,0,1.65-0.69,1.74-1.58L42.16,7.9"/>
<g>
	<g>
		<path class="st0" d="M64.85,59.68L62.93,35.4c-0.07-0.91-0.83-1.61-1.74-1.61h-4.54"/>
		<path class="st0" d="M48.45,59.68l1.92-24.28c0.07-0.91,0.83-1.61,1.74-1.61h4.54"/>
	</g>
	<g>
		<path class="st0" d="M20.66,59.68L18.74,35.4c-0.07-0.91-0.83-1.61-1.74-1.61h-4.54"/>
		<path class="st0" d="M4.25,59.68L6.17,35.4c0.07-0.91,0.83-1.61,1.74-1.61h4.54"/>
	</g>
	<path class="st0" d="M42.16,59.68l-2.31-24.31c-0.09-0.9-0.84-1.58-1.74-1.58H31c-0.9,0-1.65,0.69-1.74,1.58l-2.31,24.31"/>
</g>
</svg>
